<?xml version="1.0" encoding="UTF-8"?>
<svg xmlns="http://www.w3.org/2000/svg" viewBox="0 0 92 32" width="69" height="24">
  <path d="M23.02,12.75 L1.56,12.75 L0.00,17.00 L21.47,17.00 L23.02,12.75 Z M25.34,6.35 L3.87,6.35 L2.31,10.60 L23.78,10.60 L25.34,6.35 Z M26.09,4.25 L4.63,4.25 L6.18,0.00 L27.65,0.00 L26.09,4.25 Z" fill="#09bafa" fill-rule="evenodd"/>
  <path d="M46.24,18.40 L46.24,18.50 C47.25,18.85 48.20,19.45 48.65,19.85 C50.16,21.10 50.86,22.70 50.86,24.85 C50.86,28.35 48.95,30.85 45.89,31.65 C44.93,31.90 43.93,32.00 42.12,32.00 L32.67,32.00 L32.67,6.50 L41.01,6.50 C42.72,6.50 43.88,6.60 44.93,6.85 C47.95,7.65 49.91,9.65 49.91,12.90 C49.91,14.60 49.26,16.10 48.25,17.05 C47.80,17.50 47.19,18.00 46.24,18.40 Z M37.89,21.10 L37.89,27.80 L41.51,27.80 C42.62,27.80 43.58,27.70 44.33,27.05 C45.03,26.40 45.39,25.55 45.39,24.45 C45.39,23.60 45.18,22.80 44.73,22.25 C43.98,21.30 43.02,21.10 41.41,21.10 L37.89,21.10 Z M37.84,16.70 L40.76,16.70 C41.66,16.70 42.12,16.70 42.57,16.55 C43.78,16.20 44.53,15.15 44.53,13.70 C44.53,12.00 43.73,11.25 42.57,10.90 C42.07,10.75 41.56,10.70 40.61,10.70 L37.84,10.70 L37.84,16.70 Z M58.71,32.00 L58.71,10.80 L51.17,10.80 L51.17,6.50 L72.08,6.50 L70.57,10.80 L63.89,10.80 L63.89,32.00 L58.71,32.00 Z M73.69,32.00 L73.69,6.50 L90.63,6.50 L89.12,10.80 L78.87,10.80 L78.87,16.45 L83.04,16.45 C86.41,16.45 88.17,17.25 89.37,18.25 C90.33,19.05 91.94,20.80 91.94,24.30 C91.94,27.75 90.28,29.65 88.87,30.60 C87.26,31.70 85.55,32.00 82.08,32.00 L73.69,32.00 Z M78.87,27.70 L82.79,27.70 C84.30,27.70 85.15,27.35 85.80,26.55 C86.11,26.15 86.56,25.45 86.56,24.10 C86.56,22.75 86.11,21.85 85.20,21.20 C84.65,20.80 83.94,20.60 82.74,20.60 L78.87,20.60 L78.87,27.70 Z" fill="#0953c2" fill-rule="evenodd"/>
</svg>